#N canvas 719 216 517 418 10;
#X obj 98 41 r inRadius;
#X obj 230 41 r outRadius;
#X obj 354 41 r freq;
#X obj 353 119 osc~;
#X msg 378 76;
#X obj 91 154 metro 100;
#X obj 114 199 tabwrite~ gen;
#N canvas 0 50 450 250 (subpatch) 0;
#X coords 0 1 100 -1 200 140 1;
#X restore 232 229 graph;
#X obj 91 123 tgl 15 0 empty empty empty 17 7 0 10 -262144 -1 -1 1
1;
#X obj 241 194 throw~ Master_left;
#X obj 366 194 throw~ Master_right;
#X connect 2 0 3 0;
#X connect 2 0 4 0;
#X connect 3 0 6 0;
#X connect 3 0 9 0;
#X connect 3 0 10 0;
#X connect 5 0 6 0;
#X connect 8 0 5 0;
