#N canvas 309 401 450 300 10;
#X obj 106 63 r sample_event;
#X obj 106 93 unpack f;
#X obj 106 123 mtof~;
#X obj 106 153 osc~;
#X obj 106 183 *~ 0.3;
#X obj 105 221 throw~ Master_left;
#X obj 242 221 throw~ Master_right;
#X connect 0 0 1 0;
#X connect 1 0 2 0;
#X connect 2 0 3 0;
#X connect 3 0 4 0;
#X connect 4 0 5 0;
#X connect 4 0 6 0;
